<?xml version="1.0" standalone="no"?>
<!DOCTYPE svg PUBLIC "-//W3C//DTD SVG 20010904//EN"
 "http://www.w3.org/TR/2001/REC-SVG-20010904/DTD/svg10.dtd">
<svg version="1.0" xmlns="http://www.w3.org/2000/svg"
 width="300.000000pt" height="266.000000pt" viewBox="0 0 300.000000 266.000000"
 preserveAspectRatio="xMidYMid meet">
<metadata>
Created by potrace 1.10, written by Peter Selinger 2001-2011
</metadata>
<g transform="translate(0.000000,266.000000) scale(0.100000,-0.100000)"
fill="#444444" stroke="none">
<path d="M1361 2464 c-137 -37 -278 -151 -339 -276 -57 -117 -62 -159 -62
-600 l0 -398 35 0 c115 0 236 107 251 222 6 40 10 48 23 42 107 -45 215 -60
313 -44 142 24 264 97 347 208 126 168 145 386 50 575 -40 79 -153 192 -231
229 -118 58 -269 74 -387 42z m258 -29 c180 -43 328 -183 373 -354 94 -361
-195 -691 -561 -640 -41 6 -96 19 -124 30 -47 19 -51 19 -68 3 -11 -9 -19 -29
-19 -43 0 -42 -45 -126 -83 -156 -31 -23 -111 -55 -139 -55 -5 0 -8 174 -6
418 4 398 5 420 25 474 92 245 348 382 602 323z"/>
<path d="M1453 2209 c-94 -12 -180 -88 -208 -185 -20 -70 -19 -113 5 -176 42
-114 132 -178 247 -178 63 0 123 20 123 40 0 6 8 10 18 10 22 0 74 48 67 61
-4 5 1 9 9 9 9 0 19 12 22 28 4 15 12 34 19 42 14 17 17 158 4 166 -5 3 -9 13
-9 23 0 9 -13 33 -30 51 -16 18 -30 37 -30 42 0 5 -12 14 -27 20 -16 7 -36 19
-46 27 -23 19 -98 28 -164 20z m142 -34 c30 -13 30 -13 -25 -14 -31 -1 -61 4
-67 10 -9 9 -11 7 -7 -8 3 -12 1 -24 -5 -27 -7 -5 -7 -13 1 -26 9 -14 9 -22
-3 -36 -11 -13 -11 -18 -1 -21 6 -3 12 -11 12 -19 0 -10 26 -14 122 -16 86 -2
123 -7 126 -15 3 -10 -26 -13 -122 -13 -105 0 -126 -2 -126 -15 0 -13 21 -15
125 -15 104 0 125 -2 125 -15 0 -13 -21 -15 -125 -15 -104 0 -125 -2 -125 -15
0 -13 21 -15 126 -15 96 0 125 -3 122 -12 -3 -9 -40 -14 -126 -16 -99 -2 -122
-5 -122 -17 0 -12 20 -15 115 -15 98 0 114 -2 109 -15 -5 -12 -27 -15 -115
-15 -90 0 -109 -3 -109 -15 0 -12 17 -15 96 -15 83 0 95 -2 84 -15 -8 -10 -37
-15 -93 -17 -53 -2 -82 -7 -85 -15 -3 -10 13 -13 55 -13 62 -1 57 -12 -10 -24
-99 -18 -211 34 -259 120 -16 29 -31 74 -35 102 -11 97 50 207 139 250 51 25
157 29 203 7z m79 -50 c18 -14 10 -15 -77 -15 -80 0 -97 3 -97 15 0 21 146 21
174 0z m50 -60 c5 -13 -11 -15 -109 -15 -96 0 -115 3 -115 15 0 12 19 15 109
15 88 0 110 -3 115 -15z"/>
<path d="M195 1189 c-4 -6 -5 -12 -2 -15 2 -3 7 2 10 11 7 17 1 20 -8 4z"/>
<path d="M1505 890 l-1410 -5 0 -348 0 -347 1408 0 1407 0 0 345 c-1 190 2
350 5 355 3 6 5 9 3 8 -2 -2 -637 -5 -1413 -8z m1365 -345 l0 -315 -1370 0
-1370 0 0 313 0 312 1370 2 1370 2 0 -314z"/>
<path d="M370 565 c0 -103 3 -125 15 -125 11 0 13 10 8 50 l-6 50 50 0 c92 0
138 67 83 122 -25 25 -36 28 -89 28 l-61 0 0 -125z m134 79 c37 -36 9 -73 -61
-78 l-53 -5 0 50 0 49 49 0 c32 0 55 -6 65 -16z"/>
<path d="M622 656 c-34 -32 -37 -38 -37 -91 0 -53 3 -59 37 -91 29 -26 46 -34
75 -34 73 1 123 53 123 129 0 37 -6 49 -39 82 -32 33 -45 39 -80 39 -33 0 -49
-7 -79 -34z m113 0 c40 -17 55 -42 55 -91 0 -49 -15 -74 -55 -91 -65 -27 -125
20 -125 98 1 46 36 86 88 97 1 1 18 -5 37 -13z"/>
<path d="M865 565 l0 -125 78 0 c62 0 77 3 77 15 0 12 -14 15 -66 15 l-65 0 3
110 c3 93 1 110 -12 110 -13 0 -15 -21 -15 -125z"/>
<path d="M990 685 c0 -2 18 -33 40 -67 34 -55 40 -71 40 -120 0 -45 3 -58 15
-58 11 0 15 13 15 53 0 44 7 62 44 122 25 38 43 71 41 74 -11 11 -36 -13 -62
-58 -15 -28 -31 -51 -35 -51 -3 0 -21 25 -38 55 -17 30 -38 55 -46 55 -8 0
-14 -2 -14 -5z"/>
<path d="M1279 673 c-79 -49 -77 -175 3 -219 32 -18 89 -17 117 2 33 23 12 38
-27 19 -27 -14 -35 -14 -66 -1 -40 17 -58 45 -58 91 0 46 18 74 58 91 31 13
39 13 66 -1 39 -19 60 -4 27 19 -30 20 -86 20 -120 -1z"/>
<path d="M1452 673 c8 -10 29 -42 47 -72 29 -47 32 -61 29 -111 -3 -50 -1 -56
15 -52 13 3 17 15 17 56 0 44 7 62 45 124 36 58 42 72 27 72 -10 0 -28 -20
-45 -50 -15 -27 -32 -52 -37 -55 -4 -3 -23 20 -40 50 -22 39 -38 55 -52 55
-19 0 -20 -2 -6 -17z"/>
<path d="M1690 566 c0 -115 1 -124 20 -129 16 -4 18 -2 10 13 -6 10 -10 35
-10 54 l0 36 51 0 c43 0 55 5 80 30 35 34 33 61 -7 98 -20 18 -37 22 -85 22
l-59 0 0 -124z m134 78 c37 -36 9 -73 -61 -78 l-53 -5 0 50 0 49 49 0 c32 0
55 -6 65 -16z"/>
<path d="M1910 565 c0 -104 2 -125 15 -125 12 0 15 14 15 63 l0 62 62 -1 62
-2 -3 -61 c-2 -53 0 -61 16 -61 16 0 18 11 18 125 0 116 -1 125 -19 125 -16 0
-18 -6 -14 -50 l5 -50 -63 0 -64 0 0 50 c0 38 -4 50 -15 50 -13 0 -15 -21 -15
-125z"/>
<path d="M2150 565 l0 -125 83 0 c68 0 84 3 84 15 0 12 -15 15 -71 15 l-71 0
1 47 1 47 62 -3 c50 -2 61 0 61 13 0 13 -12 16 -63 16 l-62 0 0 33 0 32 69 5
c43 3 71 10 74 18 3 9 -18 12 -82 12 l-86 0 0 -125z"/>
<path d="M2360 565 c0 -108 2 -125 16 -125 13 0 15 9 12 50 -4 65 13 65 67 0
22 -27 48 -49 59 -49 21 -1 16 8 -38 67 -29 31 -29 32 -7 32 26 0 71 45 71 72
0 11 -13 33 -29 49 -26 26 -36 29 -90 29 l-61 0 0 -125z m131 85 c23 -13 25
-53 3 -71 -9 -7 -36 -13 -61 -13 l-45 -1 -2 48 -1 47 43 0 c24 0 52 -5 63 -10z"/>
<path d="M2591 669 c-14 -14 -21 -30 -19 -47 3 -27 29 -45 105 -72 17 -7 33
-20 36 -30 12 -45 -75 -68 -113 -30 -13 13 -21 16 -26 8 -12 -18 43 -58 80
-58 45 0 86 33 86 69 0 34 -26 59 -76 73 -48 13 -64 25 -64 49 0 27 41 41 80
28 16 -6 30 -15 30 -20 0 -4 7 -6 17 -2 14 5 12 10 -11 30 -35 30 -93 31 -125
2z"/>
</g>
</svg>
